<<<<<<< HEAD
<mxfile host="app.diagrams.net" modified="2022-05-05T08:55:52.872Z" agent="5.0 (Windows NT 10.0; Win64; x64) AppleWebKit/537.36 (KHTML, like Gecko) Chrome/100.0.4896.127 Safari/537.36" etag="LZ4bW0K5moMdIB8-yCpE" version="17.5.0" type="google"><diagram id="C5RBs43oDa-KdzZeNtuy" name="Page-1">7VxdU9s4FP01mek+tOOP2EkeCZDSLmVp6dJ2X3YUWzhabCuVZQj8+r3yty0NSRpiB9MHGEmWZVnnnqujKzkD8zhYvWdoufhEXewPDM1jxB2YJwPD0OEPCpbIw7UCUeOKPOaFWlYaExdHtYqcUp+TZb3QoWGIHV4rQ4zR+3q1G+rL3bhykI+l0m/E5Yu0dGyMyvIzTLxF/iDdnqRXApRXzjoeLZBL7ytF5unAPGaU8jQVrI6xL0YmH5dvHx6++ee39vuPn6Of6O/pn18vrt+mjc22uaV4BYZD/rxNG2nTd8iPs/HK3pU/5APIaBy6WDSiDczpggc+JHVI/oc5f8jwRTGnUEQZX1CPhsg/p3SZ1buhIc+q6SKPQ/dI4Aj5uU+d27RoRnw/ewbksvpjyEWc0dsCO9FAAYSo7KM59qfIufWSjh5TnzK4FNIQi6ZcMIbsXcrOnZal8DDOHr6Lxt5ZefZH0RHInKxquYcsl46TaL9hZ2tAyupFNGYOfqKemVEDMQ9n7fEv2uf5+P7u6CJwppPz87+u/3HeDgtLBH5iGmDoJNzHsI84uat3DmXU8Yp6xa2XlEC3DW2V1jDtzOgfsgZGWr2JtF/ZXaXVQaLSjbIosUW1XSrfyppIdrgeyrqlKm1RYbMVi8Yrwr9X0j9Ks4BcaQgik9tBBCPBm/acFGYW3TD53DBrFt+KMT27kYzMupGMh3szkqcoUnFeH0LiEApln3A4ODYH06OBYfswgtM5g5QnUh9CDoNKI6iV3KTpJQJKtycAvF8Qjq+WKBnle5gG64ZTdXEwWlPPR1FUGMiT/it7B8w4Xv0C+DKoOYO1BjhZ9r6cBPV8ZltUJsAmhlUzqAG4LaV1aYhbZHTJ4h+VK2pG75Wse/fUhtUAMHUOEgnXNmTq7bp8TWLzx9hD7BI8KXHRm0vsEiauQyb6Q7IlYA+vQ4984oWQdgAVDJJgKjhGQBgeZRcC4rqpleGIPKJ50pQAeCleMXlpazqwTkRbYFhRxu+C0g2pcQMW0ijaF7cLLZ3PzpaC3JaC3MbeyG13yu4t5usD0HvKETQ21Hu6saMb2Q3n0UvRZRWc7RrO7zRrDdRJ7hIzAmMmPMdh4b+rltsJf3m9eBola3XGYK2OBuZMFlILGszjaL2IqskioahmKCC+AOUM+3dY+G6F1JLcvEJvwSNJ6EHOLnNfE9uD5dMeJVjDTZsThZvWFG56vC83PZTgu8IiJINDzFDSUYBOlFAn9rko8cW/JSyyxfWeS2RD61ojd7rq3U4jH+Ysam3oRTudRK3hyxFLTy+FNgp+tIL5s6+rhnXfYGstB8DUnhqexqgbOyIdh4mDhgf1zzXr2uidVZ889a6d8/AFRTBy71xXvuuE776Zqm8qcs1ORW7ezQr5PlEgAmIF6yLsxDh0iEiTAIGAUgUaF2hOfMKT+5I9sznlSVjShOqai3N9lXG42cAXHKX3liHLntF8XHeyQ5VAHlltclyTxvjQOa4fGMc33bjqmOPy5kEywQYxjhIy1pjZM9oNrQ141+7mgGJlSqRxf1VBXgkkhQAyW43xypr0gr5ujAzDOjCMxhJGZ6UImZ3gqKpJQI7A+IgAXuHw7vBj79zd2GjEeTZdSph7g2kiwXRMgyWAARRpyMtEJqYaE/dQATaw0c2upyJDpf5dcgMeS3DmIg4wE0cMko3I3uExbMQ99GHneMhK7ZxEfEpXg+SQ4CA5wSFePIlS9w8SyX11rtYMWa0JSApvJc7kJedrDPtnLI5HTv8tk73Hx1TtxreKjzWWBvnQV7Fb7iMc2qk7NU2yWX7tUtgaqQ2spT1dWYyU4a48uAXTncMpE4pk5mIYVd6/ZXEzHGV37miH3R6r6cGGoLlpOCplQWdbgmanQG8Bc7cudeeg4UFu9pmyxD0TYspDIbi934dqak56UsfKUi1QWj1Uk5+bPfwzcTXVlPG3KpoOgeE7a6HOv1VQG0m3Zz62mMm3NBL5E65Wznzsx0rMxkQwaR6m3/epj5E0EVxTcNNCiYsJAQdL/Ai6/PeM8MSMMFYd42t3RlBsLv7ezVL73652Smx5N2tGQplWPVvTTjoPTtm2NPCvfRuxeRB5ovBg7ZJDnocqX1RqV4AFS+K7MA9pFzG+ExsiH2PsyUC+dAI1o7uqLd6WCSTv8Va+aZ0h3yduknxzLr6Nl7+V6x0knX/bassh1CliyTGioOCNKahzTIOUK14SXhVvdeRg5oiqJ7j3UFlDq2OoRp0uxPq2Wh9pavh3XIfZzS215ky353VY/msXFT6/T76REpy9TLc6e8ZUqznknX8MNTJeClN/9bz9lgx3hJUQp/Vgyyj/maZ1eyg7e4Pd7OVg9lA2tpctz273zV52/XJrN3PRJR9/5MPKMhTPVvj3Vxtfa37GrPwpmWeKr0G2/EG1dDYvf3POPP0f</diagram></mxfile>
=======
<mxfile host="app.diagrams.net" modified="2022-05-05T09:02:30.379Z" agent="5.0 (Windows NT 10.0; Win64; x64) AppleWebKit/537.36 (KHTML, like Gecko) Chrome/100.0.4896.127 Safari/537.36" etag="FufNEEDAHbsJ-UKLzTeT" version="18.0.0" type="github">
  <diagram id="C5RBs43oDa-KdzZeNtuy" name="Page-1">
    <mxGraphModel dx="1246" dy="837" grid="1" gridSize="10" guides="1" tooltips="1" connect="1" arrows="1" fold="1" page="1" pageScale="1" pageWidth="827" pageHeight="1169" math="0" shadow="0">
      <root>
        <mxCell id="WIyWlLk6GJQsqaUBKTNV-0" />
        <mxCell id="WIyWlLk6GJQsqaUBKTNV-1" parent="WIyWlLk6GJQsqaUBKTNV-0" />
        <mxCell id="WIyWlLk6GJQsqaUBKTNV-2" value="" style="rounded=0;html=1;jettySize=auto;orthogonalLoop=1;fontSize=11;endArrow=block;endFill=0;endSize=8;strokeWidth=1;shadow=0;labelBackgroundColor=none;edgeStyle=orthogonalEdgeStyle;entryX=0.5;entryY=0;entryDx=0;entryDy=0;" parent="WIyWlLk6GJQsqaUBKTNV-1" source="WIyWlLk6GJQsqaUBKTNV-3" target="tR0Qb8wvANmcB9LLOVZc-4" edge="1">
          <mxGeometry relative="1" as="geometry">
            <mxPoint x="360" y="170" as="targetPoint" />
          </mxGeometry>
        </mxCell>
        <mxCell id="tR0Qb8wvANmcB9LLOVZc-59" style="edgeStyle=orthogonalEdgeStyle;rounded=0;orthogonalLoop=1;jettySize=auto;html=1;exitX=1;exitY=0.5;exitDx=0;exitDy=0;startArrow=block;startFill=1;endArrow=none;endFill=0;" parent="WIyWlLk6GJQsqaUBKTNV-1" source="WIyWlLk6GJQsqaUBKTNV-3" edge="1">
          <mxGeometry relative="1" as="geometry">
            <mxPoint x="730" y="840" as="targetPoint" />
          </mxGeometry>
        </mxCell>
        <mxCell id="WIyWlLk6GJQsqaUBKTNV-3" value="Inicio Menú&lt;br&gt;Intentos = 10;" style="rounded=1;whiteSpace=wrap;html=1;fontSize=12;glass=0;strokeWidth=1;shadow=0;" parent="WIyWlLk6GJQsqaUBKTNV-1" vertex="1">
          <mxGeometry x="300" y="80" width="120" height="40" as="geometry" />
        </mxCell>
        <mxCell id="tR0Qb8wvANmcB9LLOVZc-1" style="edgeStyle=orthogonalEdgeStyle;rounded=0;orthogonalLoop=1;jettySize=auto;html=1;exitX=0.5;exitY=1;exitDx=0;exitDy=0;endArrow=none;endFill=0;" parent="WIyWlLk6GJQsqaUBKTNV-1" edge="1">
          <mxGeometry relative="1" as="geometry">
            <mxPoint x="360" y="250" as="sourcePoint" />
            <mxPoint x="360" y="310" as="targetPoint" />
          </mxGeometry>
        </mxCell>
        <mxCell id="tR0Qb8wvANmcB9LLOVZc-0" value="JugarPartida(Pedir vidas)" style="text;html=1;align=center;verticalAlign=middle;resizable=0;points=[];autosize=1;strokeColor=none;fillColor=none;" parent="WIyWlLk6GJQsqaUBKTNV-1" vertex="1">
          <mxGeometry x="210" y="150" width="150" height="20" as="geometry" />
        </mxCell>
        <mxCell id="tR0Qb8wvANmcB9LLOVZc-16" style="edgeStyle=orthogonalEdgeStyle;rounded=0;orthogonalLoop=1;jettySize=auto;html=1;exitX=0;exitY=0.5;exitDx=0;exitDy=0;entryX=0.5;entryY=0;entryDx=0;entryDy=0;" parent="WIyWlLk6GJQsqaUBKTNV-1" source="tR0Qb8wvANmcB9LLOVZc-2" target="tR0Qb8wvANmcB9LLOVZc-12" edge="1">
          <mxGeometry relative="1" as="geometry" />
        </mxCell>
        <mxCell id="tR0Qb8wvANmcB9LLOVZc-17" style="edgeStyle=orthogonalEdgeStyle;rounded=0;orthogonalLoop=1;jettySize=auto;html=1;exitX=1;exitY=0.5;exitDx=0;exitDy=0;entryX=0.6;entryY=0.05;entryDx=0;entryDy=0;entryPerimeter=0;" parent="WIyWlLk6GJQsqaUBKTNV-1" source="tR0Qb8wvANmcB9LLOVZc-2" target="tR0Qb8wvANmcB9LLOVZc-13" edge="1">
          <mxGeometry relative="1" as="geometry" />
        </mxCell>
        <mxCell id="tR0Qb8wvANmcB9LLOVZc-2" value="Es correcta?" style="rhombus;whiteSpace=wrap;html=1;shadow=0;fontFamily=Helvetica;fontSize=12;align=center;strokeWidth=1;spacing=6;spacingTop=-4;" parent="WIyWlLk6GJQsqaUBKTNV-1" vertex="1">
          <mxGeometry x="310" y="390" width="100" height="80" as="geometry" />
        </mxCell>
        <mxCell id="tR0Qb8wvANmcB9LLOVZc-4" value="Se genera y se oculta la plabra" style="rounded=1;whiteSpace=wrap;html=1;fontSize=12;glass=0;strokeWidth=1;shadow=0;" parent="WIyWlLk6GJQsqaUBKTNV-1" vertex="1">
          <mxGeometry x="300" y="200" width="120" height="40" as="geometry" />
        </mxCell>
        <mxCell id="tR0Qb8wvANmcB9LLOVZc-9" style="edgeStyle=orthogonalEdgeStyle;rounded=0;orthogonalLoop=1;jettySize=auto;html=1;exitX=0.5;exitY=1;exitDx=0;exitDy=0;entryX=0.5;entryY=0;entryDx=0;entryDy=0;" parent="WIyWlLk6GJQsqaUBKTNV-1" source="tR0Qb8wvANmcB9LLOVZc-5" target="tR0Qb8wvANmcB9LLOVZc-2" edge="1">
          <mxGeometry relative="1" as="geometry" />
        </mxCell>
        <mxCell id="tR0Qb8wvANmcB9LLOVZc-54" style="edgeStyle=orthogonalEdgeStyle;rounded=0;orthogonalLoop=1;jettySize=auto;html=1;endArrow=none;endFill=0;startArrow=block;startFill=1;exitX=0;exitY=0;exitDx=0;exitDy=0;" parent="WIyWlLk6GJQsqaUBKTNV-1" source="tR0Qb8wvANmcB9LLOVZc-71" edge="1">
          <mxGeometry relative="1" as="geometry">
            <mxPoint x="40" y="600" as="targetPoint" />
            <mxPoint x="250" y="300" as="sourcePoint" />
            <Array as="points">
              <mxPoint x="250" y="300" />
              <mxPoint x="250" y="220" />
              <mxPoint x="40" y="220" />
            </Array>
          </mxGeometry>
        </mxCell>
        <mxCell id="tR0Qb8wvANmcB9LLOVZc-5" value="Se introduce una letra" style="rounded=1;whiteSpace=wrap;html=1;fontSize=12;glass=0;strokeWidth=1;shadow=0;" parent="WIyWlLk6GJQsqaUBKTNV-1" vertex="1">
          <mxGeometry x="107.5" y="310" width="120" height="40" as="geometry" />
        </mxCell>
        <mxCell id="tR0Qb8wvANmcB9LLOVZc-41" style="edgeStyle=orthogonalEdgeStyle;rounded=0;orthogonalLoop=1;jettySize=auto;html=1;exitX=0.5;exitY=1;exitDx=0;exitDy=0;entryX=0;entryY=0;entryDx=0;entryDy=0;" parent="WIyWlLk6GJQsqaUBKTNV-1" source="tR0Qb8wvANmcB9LLOVZc-12" target="tR0Qb8wvANmcB9LLOVZc-33" edge="1">
          <mxGeometry relative="1" as="geometry">
            <Array as="points">
              <mxPoint x="168" y="550" />
              <mxPoint x="290" y="550" />
              <mxPoint x="290" y="560" />
            </Array>
          </mxGeometry>
        </mxCell>
        <mxCell id="tR0Qb8wvANmcB9LLOVZc-12" value="Mostrar una secuencia imagen&lt;br&gt;Inhabilitar el botón de la letra&lt;br&gt;Restar Intentos" style="rounded=1;whiteSpace=wrap;html=1;fontSize=12;glass=0;strokeWidth=1;shadow=0;" parent="WIyWlLk6GJQsqaUBKTNV-1" vertex="1">
          <mxGeometry x="80" y="490" width="175" height="40" as="geometry" />
        </mxCell>
        <mxCell id="tR0Qb8wvANmcB9LLOVZc-40" style="edgeStyle=orthogonalEdgeStyle;rounded=0;orthogonalLoop=1;jettySize=auto;html=1;exitX=0.5;exitY=1;exitDx=0;exitDy=0;entryX=1;entryY=0;entryDx=0;entryDy=0;" parent="WIyWlLk6GJQsqaUBKTNV-1" source="tR0Qb8wvANmcB9LLOVZc-13" target="tR0Qb8wvANmcB9LLOVZc-33" edge="1">
          <mxGeometry relative="1" as="geometry">
            <Array as="points">
              <mxPoint x="510" y="550" />
              <mxPoint x="365" y="550" />
            </Array>
          </mxGeometry>
        </mxCell>
        <mxCell id="tR0Qb8wvANmcB9LLOVZc-13" value="Se muestra la letra" style="rounded=1;whiteSpace=wrap;html=1;fontSize=12;glass=0;strokeWidth=1;shadow=0;" parent="WIyWlLk6GJQsqaUBKTNV-1" vertex="1">
          <mxGeometry x="450" y="490" width="120" height="40" as="geometry" />
        </mxCell>
        <mxCell id="tR0Qb8wvANmcB9LLOVZc-14" value="Si" style="text;html=1;align=center;verticalAlign=middle;resizable=0;points=[];autosize=1;strokeColor=none;fillColor=none;" parent="WIyWlLk6GJQsqaUBKTNV-1" vertex="1">
          <mxGeometry x="450" y="410" width="30" height="20" as="geometry" />
        </mxCell>
        <mxCell id="tR0Qb8wvANmcB9LLOVZc-15" value="No" style="text;html=1;align=center;verticalAlign=middle;resizable=0;points=[];autosize=1;strokeColor=none;fillColor=none;" parent="WIyWlLk6GJQsqaUBKTNV-1" vertex="1">
          <mxGeometry x="225" y="410" width="30" height="20" as="geometry" />
        </mxCell>
        <mxCell id="tR0Qb8wvANmcB9LLOVZc-18" value="Habilitar/Deshabilitar botones a la vez" style="rounded=1;whiteSpace=wrap;html=1;fontSize=12;glass=0;strokeWidth=1;shadow=0;" parent="WIyWlLk6GJQsqaUBKTNV-1" vertex="1">
          <mxGeometry x="770" y="300" width="120" height="30" as="geometry" />
        </mxCell>
        <mxCell id="tR0Qb8wvANmcB9LLOVZc-19" value="Componente secuencia de imagenes" style="rounded=1;whiteSpace=wrap;html=1;fontSize=12;glass=0;strokeWidth=1;shadow=0;" parent="WIyWlLk6GJQsqaUBKTNV-1" vertex="1">
          <mxGeometry x="770" y="220" width="120" height="40" as="geometry" />
        </mxCell>
        <mxCell id="tR0Qb8wvANmcB9LLOVZc-22" value="Modificar Numero vidas" style="rounded=1;whiteSpace=wrap;html=1;fontSize=12;glass=0;strokeWidth=1;shadow=0;" parent="WIyWlLk6GJQsqaUBKTNV-1" vertex="1">
          <mxGeometry x="440" y="140" width="120" height="40" as="geometry" />
        </mxCell>
        <mxCell id="tR0Qb8wvANmcB9LLOVZc-23" value="ListBox con 10 palabras" style="rounded=1;whiteSpace=wrap;html=1;fontSize=12;glass=0;strokeWidth=1;shadow=0;" parent="WIyWlLk6GJQsqaUBKTNV-1" vertex="1">
          <mxGeometry x="770" y="380" width="120" height="40" as="geometry" />
        </mxCell>
        <mxCell id="tR0Qb8wvANmcB9LLOVZc-24" value="Lista de labes &quot;_&quot;" style="rounded=1;whiteSpace=wrap;html=1;fontSize=12;glass=0;strokeWidth=1;shadow=0;" parent="WIyWlLk6GJQsqaUBKTNV-1" vertex="1">
          <mxGeometry x="770" y="440" width="120" height="40" as="geometry" />
        </mxCell>
        <mxCell id="tR0Qb8wvANmcB9LLOVZc-58" style="edgeStyle=orthogonalEdgeStyle;rounded=0;orthogonalLoop=1;jettySize=auto;html=1;exitX=0.5;exitY=1;exitDx=0;exitDy=0;entryX=0.5;entryY=0;entryDx=0;entryDy=0;startArrow=block;startFill=1;endArrow=none;endFill=0;" parent="WIyWlLk6GJQsqaUBKTNV-1" source="tR0Qb8wvANmcB9LLOVZc-29" target="tR0Qb8wvANmcB9LLOVZc-57" edge="1">
          <mxGeometry relative="1" as="geometry" />
        </mxCell>
        <mxCell id="tR0Qb8wvANmcB9LLOVZc-29" value="Mostrar imagen victoria/derrota" style="rounded=1;whiteSpace=wrap;html=1;fontSize=12;glass=0;strokeWidth=1;shadow=0;" parent="WIyWlLk6GJQsqaUBKTNV-1" vertex="1">
          <mxGeometry x="280" y="690" width="120" height="40" as="geometry" />
        </mxCell>
        <mxCell id="tR0Qb8wvANmcB9LLOVZc-46" style="edgeStyle=orthogonalEdgeStyle;rounded=0;orthogonalLoop=1;jettySize=auto;html=1;entryX=0.5;entryY=0;entryDx=0;entryDy=0;" parent="WIyWlLk6GJQsqaUBKTNV-1" source="tR0Qb8wvANmcB9LLOVZc-33" target="tR0Qb8wvANmcB9LLOVZc-29" edge="1">
          <mxGeometry relative="1" as="geometry">
            <Array as="points">
              <mxPoint x="360" y="690" />
            </Array>
          </mxGeometry>
        </mxCell>
        <mxCell id="tR0Qb8wvANmcB9LLOVZc-53" style="edgeStyle=orthogonalEdgeStyle;rounded=0;orthogonalLoop=1;jettySize=auto;html=1;exitX=0;exitY=1;exitDx=0;exitDy=0;endArrow=none;endFill=0;" parent="WIyWlLk6GJQsqaUBKTNV-1" source="tR0Qb8wvANmcB9LLOVZc-33" edge="1">
          <mxGeometry relative="1" as="geometry">
            <mxPoint x="40" y="600" as="targetPoint" />
            <Array as="points">
              <mxPoint x="315" y="600" />
            </Array>
          </mxGeometry>
        </mxCell>
        <mxCell id="tR0Qb8wvANmcB9LLOVZc-33" value="Ha ganado?" style="rhombus;whiteSpace=wrap;html=1;shadow=0;fontFamily=Helvetica;fontSize=12;align=center;strokeWidth=1;spacing=6;spacingTop=-4;" parent="WIyWlLk6GJQsqaUBKTNV-1" vertex="1">
          <mxGeometry x="290" y="540" width="100" height="80" as="geometry" />
        </mxCell>
        <mxCell id="tR0Qb8wvANmcB9LLOVZc-60" style="edgeStyle=orthogonalEdgeStyle;rounded=0;orthogonalLoop=1;jettySize=auto;html=1;exitX=1;exitY=0.5;exitDx=0;exitDy=0;startArrow=none;startFill=0;endArrow=none;endFill=0;" parent="WIyWlLk6GJQsqaUBKTNV-1" source="tR0Qb8wvANmcB9LLOVZc-57" edge="1">
          <mxGeometry relative="1" as="geometry">
            <mxPoint x="730" y="840" as="targetPoint" />
          </mxGeometry>
        </mxCell>
        <mxCell id="tR0Qb8wvANmcB9LLOVZc-64" style="edgeStyle=orthogonalEdgeStyle;rounded=0;orthogonalLoop=1;jettySize=auto;html=1;exitX=0.5;exitY=1;exitDx=0;exitDy=0;startArrow=none;startFill=0;endArrow=block;endFill=1;" parent="WIyWlLk6GJQsqaUBKTNV-1" source="tR0Qb8wvANmcB9LLOVZc-57" edge="1">
          <mxGeometry relative="1" as="geometry">
            <mxPoint x="340" y="950" as="targetPoint" />
          </mxGeometry>
        </mxCell>
        <mxCell id="tR0Qb8wvANmcB9LLOVZc-57" value="Volver a empezar?" style="rhombus;whiteSpace=wrap;html=1;shadow=0;fontFamily=Helvetica;fontSize=12;align=center;strokeWidth=1;spacing=6;spacingTop=-4;" parent="WIyWlLk6GJQsqaUBKTNV-1" vertex="1">
          <mxGeometry x="290" y="800" width="100" height="80" as="geometry" />
        </mxCell>
        <mxCell id="tR0Qb8wvANmcB9LLOVZc-63" value="Si" style="text;html=1;align=center;verticalAlign=middle;resizable=0;points=[];autosize=1;strokeColor=none;fillColor=none;" parent="WIyWlLk6GJQsqaUBKTNV-1" vertex="1">
          <mxGeometry x="450" y="840" width="30" height="20" as="geometry" />
        </mxCell>
        <mxCell id="tR0Qb8wvANmcB9LLOVZc-65" value="Fin" style="rounded=1;whiteSpace=wrap;html=1;fontSize=12;glass=0;strokeWidth=1;shadow=0;" parent="WIyWlLk6GJQsqaUBKTNV-1" vertex="1">
          <mxGeometry x="280" y="950" width="120" height="40" as="geometry" />
        </mxCell>
        <mxCell id="tR0Qb8wvANmcB9LLOVZc-66" value="No" style="text;html=1;align=center;verticalAlign=middle;resizable=0;points=[];autosize=1;strokeColor=none;fillColor=none;" parent="WIyWlLk6GJQsqaUBKTNV-1" vertex="1">
          <mxGeometry x="300" y="900" width="30" height="20" as="geometry" />
        </mxCell>
        <mxCell id="tR0Qb8wvANmcB9LLOVZc-67" value="Menú Salir / Nuevo Juego" style="rounded=1;whiteSpace=wrap;html=1;fontSize=12;glass=0;strokeWidth=1;shadow=0;" parent="WIyWlLk6GJQsqaUBKTNV-1" vertex="1">
          <mxGeometry x="770" y="500" width="120" height="40" as="geometry" />
        </mxCell>
        <mxCell id="tR0Qb8wvANmcB9LLOVZc-68" value="Intentos Fallidos (Label)" style="rounded=1;whiteSpace=wrap;html=1;fontSize=12;glass=0;strokeWidth=1;shadow=0;" parent="WIyWlLk6GJQsqaUBKTNV-1" vertex="1">
          <mxGeometry x="770" y="570" width="120" height="40" as="geometry" />
        </mxCell>
        <mxCell id="tR0Qb8wvANmcB9LLOVZc-69" value="Barra menú: Como Jugar y Acerca De" style="rounded=1;whiteSpace=wrap;html=1;fontSize=12;glass=0;strokeWidth=1;shadow=0;" parent="WIyWlLk6GJQsqaUBKTNV-1" vertex="1">
          <mxGeometry x="770" y="635" width="120" height="40" as="geometry" />
        </mxCell>
        <mxCell id="tR0Qb8wvANmcB9LLOVZc-74" style="edgeStyle=orthogonalEdgeStyle;rounded=0;orthogonalLoop=1;jettySize=auto;html=1;exitX=1;exitY=0.5;exitDx=0;exitDy=0;startArrow=none;startFill=0;endArrow=none;endFill=0;" parent="WIyWlLk6GJQsqaUBKTNV-1" source="tR0Qb8wvANmcB9LLOVZc-70" edge="1">
          <mxGeometry relative="1" as="geometry">
            <mxPoint x="620" y="320" as="targetPoint" />
          </mxGeometry>
        </mxCell>
        <mxCell id="tR0Qb8wvANmcB9LLOVZc-70" value="Generar Pista" style="rounded=1;whiteSpace=wrap;html=1;fontSize=12;glass=0;strokeWidth=1;shadow=0;" parent="WIyWlLk6GJQsqaUBKTNV-1" vertex="1">
          <mxGeometry x="520" y="300" width="120" height="40" as="geometry" />
        </mxCell>
        <mxCell id="tR0Qb8wvANmcB9LLOVZc-72" style="edgeStyle=orthogonalEdgeStyle;rounded=0;orthogonalLoop=1;jettySize=auto;html=1;exitX=1;exitY=0.5;exitDx=0;exitDy=0;entryX=0;entryY=0.5;entryDx=0;entryDy=0;startArrow=none;startFill=0;endArrow=classic;endFill=1;" parent="WIyWlLk6GJQsqaUBKTNV-1" source="tR0Qb8wvANmcB9LLOVZc-71" target="tR0Qb8wvANmcB9LLOVZc-70" edge="1">
          <mxGeometry relative="1" as="geometry" />
        </mxCell>
        <mxCell id="tR0Qb8wvANmcB9LLOVZc-73" style="edgeStyle=orthogonalEdgeStyle;rounded=0;orthogonalLoop=1;jettySize=auto;html=1;exitX=0;exitY=0.5;exitDx=0;exitDy=0;entryX=1;entryY=0.5;entryDx=0;entryDy=0;startArrow=none;startFill=0;endArrow=classic;endFill=1;" parent="WIyWlLk6GJQsqaUBKTNV-1" source="tR0Qb8wvANmcB9LLOVZc-71" target="tR0Qb8wvANmcB9LLOVZc-5" edge="1">
          <mxGeometry relative="1" as="geometry" />
        </mxCell>
        <mxCell id="tR0Qb8wvANmcB9LLOVZc-71" value="Alternativa" style="rhombus;whiteSpace=wrap;html=1;shadow=0;fontFamily=Helvetica;fontSize=12;align=center;strokeWidth=1;spacing=6;spacingTop=-4;" parent="WIyWlLk6GJQsqaUBKTNV-1" vertex="1">
          <mxGeometry x="310" y="280" width="100" height="80" as="geometry" />
        </mxCell>
      </root>
    </mxGraphModel>
  </diagram>
</mxfile>
>>>>>>> master
